<?xml version="1.0" encoding="UTF-8"?>
<svg version="1.1" xmlns="http://www.w3.org/2000/svg" width="1024" height="1024">
<path d="M0 0 C0.65339355 -0.00564468 1.30678711 -0.01128937 1.97998047 -0.0171051 C4.11449527 -0.02919434 6.24829818 -0.02283818 8.3828125 -0.01171875 C9.47242279 -0.00848602 9.47242279 -0.00848602 10.58404541 -0.00518799 C42.15320293 0.14568536 69.00925935 7.58290331 92.5078125 29.30078125 C93.30574219 30.00589844 94.10367188 30.71101563 94.92578125 31.4375 C109.50359227 44.9832536 118.17235325 64.03657579 127.5078125 81.30078125 C128.36342773 82.88149414 128.36342773 82.88149414 129.23632812 84.49414062 C131.4017704 88.49677364 133.56653493 92.49975549 135.72509766 96.50610352 C139.48417738 103.46635586 143.34625729 110.36271873 147.2578125 117.23828125 C151.33348645 124.40393789 155.31555214 131.60167637 159.13916016 138.90478516 C162.55917684 145.43194633 166.09396033 151.89387446 169.63598633 158.35546875 C172.56585836 163.71084145 175.46436028 169.08165504 178.328125 174.47265625 C178.65442902 175.08590256 178.98073303 175.69914886 179.31692505 176.33097839 C180.9097523 179.32462387 182.49872618 182.32010083 184.08056641 185.31958008 C187.75447264 192.2291143 191.65131679 198.91961908 195.81738281 205.53881836 C197.5078125 208.30078125 197.5078125 208.30078125 198.60449219 210.62329102 C199.38644465 212.5257784 199.38644465 212.5257784 201.6328125 213.05078125 C202.2515625 213.13328125 202.8703125 213.21578125 203.5078125 213.30078125 C203.94609375 212.41261719 204.384375 211.52445313 204.8359375 210.609375 C212.02035899 196.11465941 219.5456492 181.79743136 227.10058594 167.49316406 C231.77427484 158.63879142 236.41038264 149.76473469 241.02160645 140.87768555 C241.7603418 139.45539885 242.50048758 138.0338438 243.24206543 136.61303711 C244.28508769 134.6138231 245.32285464 132.61196595 246.359375 130.609375 C247.26937256 128.85838501 247.26937256 128.85838501 248.19775391 127.07202148 C249.65027395 124.51030687 249.65027395 124.51030687 249.5078125 122.30078125 C250.1678125 122.30078125 250.8278125 122.30078125 251.5078125 122.30078125 C251.7553125 121.49640625 252.0028125 120.69203125 252.2578125 119.86328125 C254.31371921 114.00394714 256.63728935 108.4916777 260.0703125 103.30078125 C262.3779558 99.77933169 263.6304625 96.33131858 264.734375 92.28125 C265.5078125 90.30078125 265.5078125 90.30078125 266.9296875 88.88671875 C269.04812599 86.75779294 269.94091524 84.48403231 271.1328125 81.73828125 C271.55820312 80.76761719 271.98359375 79.79695313 272.421875 78.796875 C272.78023438 77.97316406 273.13859375 77.14945312 273.5078125 76.30078125 C282.60973558 58.0969351 282.60973558 58.0969351 284.80859375 54.13671875 C290.97117992 42.97555575 296.8956623 31.74582467 302.40942383 20.24755859 C307.01546735 10.80528927 311.254777 4.92749823 321.5078125 1.30078125 C326.22425461 0.62543413 330.86584933 0.65663546 335.6237793 0.71728516 C337.01961969 0.71705797 338.41546117 0.71463522 339.81129456 0.71020508 C343.57636347 0.70453424 347.34064756 0.72968074 351.10556769 0.76087999 C355.06764845 0.78862048 359.02973487 0.78843064 362.99189758 0.79159546 C369.64862443 0.80077895 376.30506243 0.82823139 382.96166992 0.86865234 C392.30303147 0.92532997 401.64424683 0.9478037 410.98575342 0.96393704 C417.50270124 0.97646091 424.01962777 0.99709131 430.53654885 1.01931715 C432.10384184 1.02465223 433.6711355 1.02979087 435.23842978 1.03472948 C439.71644017 1.0491915 444.19437226 1.06886286 448.67232323 1.09620667 C450.65292298 1.10739092 452.63354595 1.11421124 454.61416626 1.12081909 C463.28358821 1.18204479 471.86664543 1.63767359 480.5078125 2.30078125 C480.5078125 2.96078125 480.5078125 3.62078125 480.5078125 4.30078125 C481.11367188 4.33888916 481.71953125 4.37699707 482.34375 4.41625977 C509.42908738 6.55964752 533.60416044 22.26983968 551.078125 42.33984375 C567.20827448 61.99684264 574.94530283 86.29276658 574.8203125 111.48828125 C574.81539795 112.67010986 574.8104834 113.85193848 574.80541992 115.06958008 C574.68040364 124.45734132 573.8046654 133.20598469 571.5078125 142.30078125 C571.25837891 143.29029785 571.25837891 143.29029785 571.00390625 144.29980469 C566.19527395 162.75960979 556.5701829 181.32051455 543.5078125 195.30078125 C542.8478125 195.30078125 542.1878125 195.30078125 541.5078125 195.30078125 C541.29769531 195.8525 541.08757813 196.40421875 540.87109375 196.97265625 C539.02129106 200.13163161 536.47556838 202.23936712 533.6953125 204.55078125 C532.82579956 205.27648315 532.82579956 205.27648315 531.9387207 206.0168457 C511.26219798 222.90858922 487.11663433 230.5470292 461.5078125 236.30078125 C464.1701545 238.992594 466.83847917 241.67840272 469.5078125 244.36328125 C470.25160156 245.11544922 470.99539063 245.86761719 471.76171875 246.64257812 C475.88124601 250.78001637 480.08667681 254.71840558 484.51171875 258.52514648 C488.93379289 262.45882374 493.00718646 266.76371394 497.15234375 270.984375 C500.51109374 274.37996686 503.88633674 277.68495894 507.5078125 280.80078125 C512.67341994 285.24513377 517.38073543 290.12585213 522.15234375 294.984375 C526.14319952 299.01900615 530.22433259 302.84049863 534.52539062 306.54101562 C538.72021857 310.26470034 542.58198177 314.33733664 546.5078125 318.33984375 C550.42923442 322.30721984 554.45555755 326.05771872 558.68212891 329.69775391 C561.13549779 331.85191546 563.41727963 334.15078913 565.6953125 336.48828125 C568.15540849 339.01196615 570.46168441 341.26700545 573.30859375 343.3515625 C574.03433594 343.99480469 574.76007812 344.63804687 575.5078125 345.30078125 C575.5078125 346.62078125 575.5078125 347.94078125 575.5078125 349.30078125 C567.59723803 350.38224189 559.77112667 350.4644558 551.796875 350.46875 C550.37877368 350.47197169 548.96067268 350.47533641 547.54257202 350.47883606 C544.58240998 350.48479238 541.62227698 350.48667953 538.66210938 350.48608398 C534.89792538 350.48598244 531.13393033 350.49964203 527.36979103 350.51685619 C524.44413421 350.52805716 521.51852197 350.53000074 518.59284592 350.52947426 C517.20638756 350.53064193 515.81992759 350.53499413 514.43349075 350.54280663 C496.07609857 350.63659202 483.01751253 347.37385599 469.5078125 334.30078125 C469.5078125 333.64078125 469.5078125 332.98078125 469.5078125 332.30078125 C468.8478125 332.30078125 468.1878125 332.30078125 467.5078125 332.30078125 C467.5078125 331.64078125 467.5078125 330.98078125 467.5078125 330.30078125 C466.91395752 330.03362305 466.32010254 329.76646484 465.70825195 329.49121094 C463.47388196 328.28242495 462.06028866 327.07027728 460.30078125 325.25390625 C459.71361328 324.65578125 459.12644531 324.05765625 458.52148438 323.44140625 C457.91884766 322.8175 457.31621094 322.19359375 456.6953125 321.55078125 C452.56332814 317.29713541 448.42022798 313.26385588 443.78637695 309.55371094 C443.15348755 308.93351074 443.15348755 308.93351074 442.5078125 308.30078125 C442.5078125 307.64078125 442.5078125 306.98078125 442.5078125 306.30078125 C441.90953644 306.02814957 441.31126038 305.75551788 440.69485474 305.47462463 C438.56262322 304.33019961 437.20215077 303.23237521 435.51513672 301.51928711 C434.96131317 300.96208481 434.40748962 300.40488251 433.83688354 299.83079529 C432.95856369 298.932286 432.95856369 298.932286 432.0625 298.015625 C431.45141388 297.39933731 430.84032776 296.78304962 430.21072388 296.14808655 C428.26326868 294.18284801 426.32264341 292.21104361 424.3828125 290.23828125 C422.43497649 288.2628385 420.48570504 286.28886774 418.53347778 284.31776428 C417.31983321 283.09185064 416.10887165 281.86327396 414.90084839 280.63182068 C411.9933081 277.58946098 411.9933081 277.58946098 408.5078125 275.30078125 C408.5078125 274.64078125 408.5078125 273.98078125 408.5078125 273.30078125 C407.1878125 272.64078125 405.8678125 271.98078125 404.5078125 271.30078125 C404.5078125 270.64078125 404.5078125 269.98078125 404.5078125 269.30078125 C403.92443115 269.04482178 403.3410498 268.7888623 402.73999023 268.52514648 C400.29382599 267.18340814 398.72596056 265.71655836 396.79296875 263.7109375 C396.10654297 263.00904297 395.42011719 262.30714844 394.71289062 261.58398438 C393.28834029 260.10749054 391.86386073 258.63092841 390.43945312 257.15429688 C386.9697733 253.60657364 383.86968909 250.73262395 379.5078125 248.30078125 C377.734375 246.50390625 377.734375 246.50390625 376.1328125 244.55078125 C372.00318352 239.66375307 367.85435484 234.86514281 362.5078125 231.30078125 C361.8890625 230.51703125 361.2703125 229.73328125 360.6328125 228.92578125 C358.65159999 226.25252537 358.65159999 226.25252537 356.1328125 224.55078125 C350.38154978 219.62112749 346.1977187 212.93378598 345.5078125 205.30078125 C345.42014079 198.1868485 347.23368135 191.80822341 352.15234375 186.5390625 C357.83702422 181.42408857 362.68491034 179.99748345 370.32739258 180.07373047 C371.09865479 180.07343842 371.86991699 180.07314636 372.66455078 180.07284546 C375.20226469 180.07423373 377.73968141 180.0897711 380.27734375 180.10546875 C382.04139546 180.10920067 383.80544925 180.1120468 385.56950378 180.11404419 C390.20390585 180.12166655 394.83818181 180.14130304 399.47253418 180.16345215 C404.20497939 180.18394068 408.93744506 180.19305234 413.66992188 180.203125 C422.94927404 180.22455025 432.22853277 180.25866933 441.5078125 180.30078125 C441.5078125 179.64078125 441.5078125 178.98078125 441.5078125 178.30078125 C442.16265625 178.33558594 442.8175 178.37039063 443.4921875 178.40625 C458.57613907 178.85365534 471.59207022 173.77529395 482.9453125 163.80078125 C484.48532485 162.32047858 486.00832466 160.82211955 487.5078125 159.30078125 C488.08144531 158.73746094 488.65507813 158.17414063 489.24609375 157.59375 C499.56428053 146.63567566 503.14802608 131.6817851 502.7890625 117.0390625 C501.57611158 100.91692316 494.8632759 89.37031571 483.5078125 78.30078125 C482.8478125 77.97078125 482.1878125 77.64078125 481.5078125 77.30078125 C481.5078125 76.64078125 481.5078125 75.98078125 481.5078125 75.30078125 C480.79753906 75.03136719 480.08726562 74.76195312 479.35546875 74.484375 C476.43982243 73.272522 473.72890394 71.85165055 470.9453125 70.36328125 C457.01422518 63.36359277 442.44530344 63.14614243 427.14453125 63.1328125 C425.78131579 63.12958724 424.41810066 63.12622229 423.05488586 63.12272644 C420.21342162 63.11678214 417.37198758 63.11488169 414.53051758 63.11547852 C410.93034944 63.11557995 407.33037935 63.10192612 403.73025799 63.08470631 C400.91857554 63.07346457 398.10693918 63.07156298 395.29523659 63.07208824 C393.33586276 63.07037065 391.37650331 63.05961277 389.41716003 63.04853821 C370.94532868 62.733765 370.94532868 62.733765 355.02050781 70.73266602 C351.00579784 75.3069484 348.34429585 80.06324226 345.7578125 85.55078125 C342.58562072 92.16323736 339.27098332 98.68120249 335.8359375 105.16015625 C330.385029 115.45438547 325.18470408 125.86673621 320.0078125 136.30078125 C312.3441997 151.74682255 304.47773652 167.06515692 296.31488037 182.2535553 C293.36418724 187.74526262 290.51265554 193.27073219 287.7578125 198.86328125 C284.0493395 206.3752924 280.05882744 213.72181234 276.01635742 221.05859375 C273.59828455 225.45076798 271.20536646 229.84873425 268.9140625 234.30859375 C268.51566162 235.08082275 268.11726074 235.85305176 267.70678711 236.64868164 C266.97562366 238.07346867 266.25185115 239.50208566 265.53735352 240.93530273 C263.06413008 245.74026641 260.05016645 249.0398734 256.0456543 252.60107422 C254.06502286 254.79017662 252.84822709 257.10847809 251.46875 259.71875 C250.89318359 260.79970947 250.31761719 261.88066895 249.72460938 262.99438477 C249.11681641 264.14737061 248.50902344 265.30035645 247.8828125 266.48828125 C246.61197956 268.87769325 245.33712265 271.26495172 244.0625 273.65234375 C243.44729492 274.80637695 242.83208984 275.96041016 242.19824219 277.14941406 C240.17922218 280.91335258 238.11513072 284.64821362 236.0078125 288.36328125 C235.66854736 288.96180908 235.32928223 289.56033691 234.97973633 290.17700195 C234.24835037 291.46631804 233.51664603 292.75545357 232.78466797 294.04443359 C230.03000274 298.9122378 227.30273408 303.7954697 224.5703125 308.67578125 C223.96896484 309.74836182 223.36761719 310.82094238 222.74804688 311.92602539 C220.01457752 316.80494171 217.28881988 321.68744536 214.59765625 326.58984375 C206.429649 341.45822807 206.429649 341.45822807 201.5078125 348.30078125 C197.40176772 347.45125474 195.80195104 346.68759358 193.2265625 343.30078125 C192.46740107 341.97849716 191.72928411 340.64400126 191.0078125 339.30078125 C190.59474854 338.56674072 190.18168457 337.8327002 189.75610352 337.07641602 C188.31599153 334.49703645 186.90984324 331.90105128 185.5078125 329.30078125 C184.95464355 328.28097168 184.40147461 327.26116211 183.83154297 326.21044922 C180.80867606 320.63215181 177.80483844 315.04394419 174.8125 309.44921875 C172.28114385 304.72487725 169.71355251 300.02584769 167.0703125 295.36328125 C158.20466425 279.72160942 149.47767002 264.00173797 140.9453125 248.17578125 C134.8433568 236.86199135 128.57723089 225.64448398 122.27392578 214.44189453 C119.34473539 209.2321954 116.42686235 204.01616662 113.5078125 198.80078125 C112.34248755 196.72002989 111.17712294 194.63930073 110.01171875 192.55859375 C107.66411449 188.36658368 105.31789407 184.17380316 102.97265625 179.98046875 C100.07108157 174.79304771 97.16634458 169.60741096 94.25878906 164.42333984 C93.06468887 162.29387227 91.87136187 160.163971 90.67871094 158.03369141 C88.89551621 154.85022855 87.10841911 151.66898719 85.3203125 148.48828125 C84.77947021 147.52132324 84.23862793 146.55436523 83.68139648 145.55810547 C83.17680908 144.66236816 82.67222168 143.76663086 82.15234375 142.84375 C81.71253174 142.0602417 81.27271973 141.2767334 80.81958008 140.46948242 C79.50565848 138.29722009 78.03137895 136.32891722 76.5078125 134.30078125 C75.34531086 132.04163397 74.22795996 129.77939196 73.1328125 127.48828125 C68.21580967 117.43023949 62.61651153 107.76969588 57.06689453 98.05175781 C55.26202584 94.86709443 53.50060227 91.660446 51.74584961 88.44799805 C42.74761658 72.01197322 33.24807488 55.81719222 21.78710938 40.96533203 C20.50462858 39.29663851 19.24637913 37.61190312 17.9921875 35.921875 C10.62251133 26.05904692 2.76730774 16.33547206 -7.12890625 8.8984375 C-8.4921875 7.30078125 -8.4921875 7.30078125 -8.82421875 4.734375 C-8.0934434 -0.62177845 -4.56947235 0.0327484 0 0 Z " fill="#1B1C1D" transform="translate(214.4921875,341.69921875)"/>
<path d="M0 0 C0.65339355 -0.00564468 1.30678711 -0.01128937 1.97998047 -0.0171051 C4.11449527 -0.02919434 6.24829818 -0.02283818 8.3828125 -0.01171875 C9.47242279 -0.00848602 9.47242279 -0.00848602 10.58404541 -0.00518799 C42.15320293 0.14568536 69.00925935 7.58290331 92.5078125 29.30078125 C93.30574219 30.00589844 94.10367188 30.71101563 94.92578125 31.4375 C109.50359227 44.9832536 118.17235325 64.03657579 127.5078125 81.30078125 C128.36342773 82.88149414 128.36342773 82.88149414 129.23632812 84.49414062 C131.4017704 88.49677364 133.56653493 92.49975549 135.72509766 96.50610352 C139.48417738 103.46635586 143.34625729 110.36271873 147.2578125 117.23828125 C151.33348645 124.40393789 155.31555214 131.60167637 159.13916016 138.90478516 C162.55917684 145.43194633 166.09396033 151.89387446 169.63598633 158.35546875 C172.56585836 163.71084145 175.46436028 169.08165504 178.328125 174.47265625 C178.65442902 175.08590256 178.98073303 175.69914886 179.31692505 176.33097839 C180.9097523 179.32462387 182.49872618 182.32010083 184.08056641 185.31958008 C187.75447264 192.2291143 191.65131679 198.91961908 195.81738281 205.53881836 C197.5078125 208.30078125 197.5078125 208.30078125 198.58105469 210.63891602 C198.88688477 211.18733154 199.19271484 211.73574707 199.5078125 212.30078125 C200.3328125 212.46578125 201.1578125 212.63078125 202.0078125 212.80078125 C202.8328125 212.96578125 203.6578125 213.13078125 204.5078125 213.30078125 C204.76175781 213.88988281 205.01570312 214.47898437 205.27734375 215.0859375 C207.02329462 218.22864907 209.67055671 219.48942386 212.6953125 221.23828125 C221.5989933 226.58587937 230.17059023 232.40263293 238.7578125 238.23828125 C239.80211929 238.94644485 239.80211929 238.94644485 240.86752319 239.66891479 C242.87884199 241.03299966 244.88895886 242.39883106 246.8984375 243.765625 C247.80856346 244.3838916 247.80856346 244.3838916 248.73707581 245.01464844 C251.71341329 247.04481082 254.64831579 249.10864708 257.5078125 251.30078125 C257.07549316 251.68403564 256.64317383 252.06729004 256.19775391 252.4621582 C254.13451004 254.70692699 252.89386187 257.02212712 251.46875 259.71875 C250.89318359 260.79970947 250.31761719 261.88066895 249.72460938 262.99438477 C249.11681641 264.14737061 248.50902344 265.30035645 247.8828125 266.48828125 C246.61197956 268.87769325 245.33712265 271.26495172 244.0625 273.65234375 C243.44729492 274.80637695 242.83208984 275.96041016 242.19824219 277.14941406 C240.17922218 280.91335258 238.11513072 284.64821362 236.0078125 288.36328125 C235.66854736 288.96180908 235.32928223 289.56033691 234.97973633 290.17700195 C234.24835037 291.46631804 233.51664603 292.75545357 232.78466797 294.04443359 C230.03000274 298.9122378 227.30273408 303.7954697 224.5703125 308.67578125 C223.96896484 309.74836182 223.36761719 310.82094238 222.74804688 311.92602539 C220.01457752 316.80494171 217.28881988 321.68744536 214.59765625 326.58984375 C206.429649 341.45822807 206.429649 341.45822807 201.5078125 348.30078125 C197.40176772 347.45125474 195.80195104 346.68759358 193.2265625 343.30078125 C192.46740107 341.97849716 191.72928411 340.64400126 191.0078125 339.30078125 C190.59474854 338.56674072 190.18168457 337.8327002 189.75610352 337.07641602 C188.31599153 334.49703645 186.90984324 331.90105128 185.5078125 329.30078125 C184.95464355 328.28097168 184.40147461 327.26116211 183.83154297 326.21044922 C180.80867606 320.63215181 177.80483844 315.04394419 174.8125 309.44921875 C172.28114385 304.72487725 169.71355251 300.02584769 167.0703125 295.36328125 C158.20466425 279.72160942 149.47767002 264.00173797 140.9453125 248.17578125 C134.8433568 236.86199135 128.57723089 225.64448398 122.27392578 214.44189453 C119.34473539 209.2321954 116.42686235 204.01616662 113.5078125 198.80078125 C112.34248755 196.72002989 111.17712294 194.63930073 110.01171875 192.55859375 C107.66411449 188.36658368 105.31789407 184.17380316 102.97265625 179.98046875 C100.07108157 174.79304771 97.16634458 169.60741096 94.25878906 164.42333984 C93.06468887 162.29387227 91.87136187 160.163971 90.67871094 158.03369141 C88.89551621 154.85022855 87.10841911 151.66898719 85.3203125 148.48828125 C84.77947021 147.52132324 84.23862793 146.55436523 83.68139648 145.55810547 C83.17680908 144.66236816 82.67222168 143.76663086 82.15234375 142.84375 C81.71253174 142.0602417 81.27271973 141.2767334 80.81958008 140.46948242 C79.50565848 138.29722009 78.03137895 136.32891722 76.5078125 134.30078125 C75.34531086 132.04163397 74.22795996 129.77939196 73.1328125 127.48828125 C68.21580967 117.43023949 62.61651153 107.76969588 57.06689453 98.05175781 C55.26202584 94.86709443 53.50060227 91.660446 51.74584961 88.44799805 C42.74761658 72.01197322 33.24807488 55.81719222 21.78710938 40.96533203 C20.50462858 39.29663851 19.24637913 37.61190312 17.9921875 35.921875 C10.62251133 26.05904692 2.76730774 16.33547206 -7.12890625 8.8984375 C-8.4921875 7.30078125 -8.4921875 7.30078125 -8.82421875 4.734375 C-8.0934434 -0.62177845 -4.56947235 0.0327484 0 0 Z " fill="#713ACC" transform="translate(214.4921875,341.69921875)"/>
<path d="M0 0 C4.17344644 1.51262887 5.56009203 4.02992687 7.7734375 7.76953125 C8.2896315 8.63563774 8.2896315 8.63563774 8.81625366 9.51924133 C12.55232488 15.83314306 16.10528746 22.25118614 19.625 28.6875 C20.32054341 29.95338448 21.01626655 31.21917021 21.7121582 32.48486328 C26.84417001 41.8319586 31.89305383 51.22305525 36.92700195 60.62329102 C40.62787541 67.51328759 44.43216888 74.33472096 48.3125 81.125 C53.57571661 90.34497831 58.60037618 99.67843709 63.5625 109.0625 C63.92500854 109.74803955 64.28751709 110.4335791 64.66101074 111.13989258 C65.02134399 111.82140381 65.38167725 112.50291504 65.75292969 113.20507812 C66.4706629 114.56252127 67.18843592 115.91994337 67.90625 117.27734375 C68.43137177 118.27041031 68.43137177 118.27041031 68.96710205 119.28353882 C73.88471643 128.57324721 78.90957105 137.80394432 84 147 C84.40605469 147.73492676 84.81210937 148.46985352 85.23046875 149.22705078 C86.3342631 151.21782273 87.44604933 153.20380407 88.5625 155.1875 C89.16191406 156.25355469 89.76132812 157.31960938 90.37890625 158.41796875 C91.77707146 160.64492586 93.14666224 162.18046171 95 164 C95 164.66 95 165.32 95 166 C95.78375 166.0825 96.5675 166.165 97.375 166.25 C98.24125 166.4975 99.1075 166.745 100 167 C100.25652344 167.59425781 100.51304687 168.18851563 100.77734375 168.80078125 C102.51902406 171.93358001 105.17157975 173.19375116 108.1875 174.9375 C117.0911808 180.28509812 125.66277773 186.10185168 134.25 191.9375 C135.29430679 192.6456636 135.29430679 192.6456636 136.35971069 193.36813354 C138.37102949 194.73221841 140.38114636 196.09804981 142.390625 197.46484375 C143.30075096 198.08311035 143.30075096 198.08311035 144.22926331 198.71386719 C147.20560079 200.74402957 150.14050329 202.80786583 153 205 C152.56768066 205.38325439 152.13536133 205.76650879 151.68994141 206.16137695 C149.62669754 208.40614574 148.38604937 210.72134587 146.9609375 213.41796875 C146.09758789 215.03940796 146.09758789 215.03940796 145.21679688 216.69360352 C144.30510742 218.42308228 144.30510742 218.42308228 143.375 220.1875 C142.10416706 222.576912 140.82931015 224.96417047 139.5546875 227.3515625 C138.93948242 228.5055957 138.32427734 229.65962891 137.69042969 230.84863281 C135.67140968 234.61257133 133.60731822 238.34743237 131.5 242.0625 C131.16073486 242.66102783 130.82146973 243.25955566 130.47192383 243.8762207 C129.74053787 245.16553679 129.00883353 246.45467232 128.27685547 247.74365234 C125.52219024 252.61145655 122.79492158 257.49468845 120.0625 262.375 C119.46115234 263.44758057 118.85980469 264.52016113 118.24023438 265.62524414 C115.50676502 270.50416046 112.78100738 275.38666411 110.08984375 280.2890625 C101.9218365 295.15744682 101.9218365 295.15744682 97 302 C92.89395522 301.15047349 91.29413854 300.38681233 88.71875 297 C87.95926485 295.67790182 87.22110551 294.34341659 86.5 293 C86.09418701 292.27538574 85.68837402 291.55077148 85.27026367 290.80419922 C84.35515109 289.15933043 83.44978086 287.50901801 82.55224609 285.85449219 C81.116316 283.21389849 79.65785314 280.58680587 78.19204712 277.96270752 C76.88009867 275.60870366 75.57936318 273.24864372 74.28173828 270.88671875 C73.3197767 269.13822637 72.35131707 267.39331416 71.3828125 265.6484375 C70.79886719 264.57078125 70.21492188 263.493125 69.61328125 262.3828125 C68.82111206 260.93479248 68.82111206 260.93479248 68.01293945 259.45751953 C67 257 67 257 68 254 C74.69126267 265.80681034 81.3811665 277.61333053 87.92724609 289.50146484 C89.53305225 292.40886951 91.15643328 295.23464992 93 298 C95.58380177 298.25030977 95.58380177 298.25030977 98 298 C98.27223389 297.11820068 98.54446777 296.23640137 98.82495117 295.32788086 C99.91877146 292.23004909 101.18350056 289.60468372 102.80078125 286.75390625 C103.35942871 285.76302002 103.91807617 284.77213379 104.49365234 283.7512207 C105.09387207 282.69894287 105.6940918 281.64666504 106.3125 280.5625 C106.93334473 279.46446045 107.55418945 278.3664209 108.19384766 277.23510742 C109.48624274 274.95041355 110.7808659 272.66697871 112.07763672 270.38476562 C113.9027286 267.17126883 115.72053 263.95379076 117.53515625 260.734375 C126.09395943 245.55554405 126.09395943 245.55554405 129.37890625 239.875 C132.99426207 233.62129918 136.388792 227.32258186 139.546875 220.82421875 C141.43762096 217.14946248 143.62341834 213.70143528 145.8984375 210.25390625 C147.17035973 207.65142707 147.21189816 205.8606251 147 203 C145.88625 202.5875 144.7725 202.175 143.625 201.75 C140.2885394 200.34868655 139.52730103 199.27278793 138 196 C137.25234375 195.85820313 136.5046875 195.71640625 135.734375 195.5703125 C132.64672996 194.92631796 130.92687875 193.8240233 128.375 192 C125.82203869 190.18765887 123.99311875 188.99770625 121 188 C121 187.34 121 186.68 121 186 C120.01386719 185.67708984 120.01386719 185.67708984 119.0078125 185.34765625 C114.93689144 183.52367214 111.50078379 181.01649557 107.875 178.4375 C106.45807203 177.4328853 105.03888874 176.431442 103.6171875 175.43359375 C102.99440918 174.99072021 102.37163086 174.54784668 101.72998047 174.09155273 C99.87769579 172.82656797 99.87769579 172.82656797 97 172 C96.04236064 170.63194377 95.09691021 169.25371256 94.21533203 167.83544922 C92.87200377 165.80669432 91.36142033 164.00259619 89.8046875 162.1328125 C85.69715473 156.88122108 82.76736137 151.19869365 79.8059082 145.24459839 C78.19259713 142.00448968 76.5452301 138.7817816 74.8984375 135.55859375 C74.56821594 134.911147 74.23799438 134.26370026 73.89776611 133.59663391 C70.92066448 127.78703982 67.75057131 122.09849961 64.5 116.4375 C59.69360398 108.05185715 55.04735553 99.59085938 50.5 91.0625 C50.18585144 90.47358978 49.87170288 89.88467957 49.54803467 89.27792358 C47.97765756 86.33358013 46.40813484 83.38878264 44.83886719 80.44384766 C38.14321765 67.90417263 31.40785861 55.38410616 24.38574219 43.02368164 C21.68191387 38.25247409 19.06402934 33.43787499 16.45678711 28.61328125 C12.29804684 20.92099179 8.16425119 13.30069457 3.3046875 6.0234375 C2.04503437 4.06984372 0.99676496 2.09795291 0 0 Z " fill="#7238AC" transform="translate(319,388)"/>
<path d="M0 0 C0.65389206 -0.00546341 1.30778412 -0.01092682 1.98149109 -0.01655579 C4.11547346 -0.02819417 6.24882817 -0.02177924 8.3828125 -0.01171875 C9.46693924 -0.01048004 9.46693924 -0.01048004 10.57296753 -0.00921631 C24.88976698 0.02858041 38.74535649 1.14130046 52.5078125 5.30078125 C52.5078125 5.96078125 52.5078125 6.62078125 52.5078125 7.30078125 C51.65058594 7.16800781 50.79335938 7.03523438 49.91015625 6.8984375 C48.19505859 6.63353516 48.19505859 6.63353516 46.4453125 6.36328125 C45.31996094 6.18925781 44.19460938 6.01523437 43.03515625 5.8359375 C41.87113281 5.65933594 40.70710938 5.48273438 39.5078125 5.30078125 C37.95126953 5.04651367 37.95126953 5.04651367 36.36328125 4.78710938 C31.98967445 4.23542341 27.69589833 4.0744467 23.29296875 3.984375 C22.43722763 3.9635939 21.58148651 3.94281281 20.69981384 3.92140198 C17.99005474 3.85648171 15.2802061 3.79729147 12.5703125 3.73828125 C10.72329836 3.6950412 8.87629298 3.65142524 7.02929688 3.60742188 C2.52222509 3.50086006 -1.98493594 3.39943388 -6.4921875 3.30078125 C-4.54773375 6.78346371 -2.54205074 9.46116862 0.3515625 12.19921875 C1.09817139 12.91859619 1.84478027 13.63797363 2.61401367 14.37915039 C3.40396729 15.13703857 4.1939209 15.89492676 5.0078125 16.67578125 C11.84668541 23.36339086 17.80577933 30.15889805 23.23828125 38.01953125 C25.23127395 40.90096648 27.31215528 43.63575675 29.5078125 46.36328125 C32.01605345 49.53918346 33.89180723 52.59347504 35.5078125 56.30078125 C34.5178125 56.30078125 33.5278125 56.30078125 32.5078125 56.30078125 C30.70950445 53.96176571 29.10243737 51.64868681 27.5078125 49.17578125 C17.81973706 34.6436681 6.95682513 19.48390697 -7.12890625 8.8984375 C-8.4921875 7.30078125 -8.4921875 7.30078125 -8.82421875 4.734375 C-8.0934434 -0.62177845 -4.56947235 0.0327484 0 0 Z " fill="#733BAB" transform="translate(214.4921875,341.69921875)"/>
<path d="M0 0 C2.66605172 2.38925123 4.18255753 4.89867025 5.85546875 8.05078125 C6.39107422 9.05181885 6.92667969 10.05285645 7.47851562 11.08422852 C8.04248047 12.14955811 8.60644531 13.2148877 9.1875 14.3125 C10.36733066 16.51624585 11.54831316 18.71937544 12.73046875 20.921875 C13.5819751 22.51032227 13.5819751 22.51032227 14.45068359 24.13085938 C16.83502144 28.54635549 19.32440117 32.89385776 21.8359375 37.23828125 C23.63321689 40.34882197 25.40059062 43.47564271 27.1640625 46.60546875 C27.73382813 47.61665771 28.30359375 48.62784668 28.890625 49.66967773 C30.01395452 51.66475778 31.136407 53.660332 32.2578125 55.65649414 C35.30329169 61.0602603 38.41516475 66.41292253 41.63696289 71.71362305 C45.02589467 77.39826323 48.09302122 83.26642983 51.16796875 89.125 C51.94514353 90.60425545 52.72248974 92.08342085 53.5 93.5625 C53.88381836 94.29355957 54.26763672 95.02461914 54.66308594 95.77783203 C57.26747199 100.70573898 60.02174791 105.50319521 63.00390625 110.21484375 C64 112 64 112 64 114 C60.25584358 112.75194786 60.07071922 111.80980167 58.28515625 108.390625 C57.77033691 107.41955811 57.25551758 106.44849121 56.72509766 105.44799805 C55.90211182 103.86498901 55.90211182 103.86498901 55.0625 102.25 C53.88614187 100.03147594 52.70771905 97.81404557 51.52734375 95.59765625 C50.93421387 94.48148926 50.34108398 93.36532227 49.72998047 92.21533203 C47.27767168 87.65748462 44.71426888 83.16855456 42.125 78.6875 C37.44388369 70.56304746 32.85784661 62.38848268 28.3125 54.1875 C27.67626709 53.04055664 27.04003418 51.89361328 26.38452148 50.71191406 C24.08567912 46.5669999 21.78734428 42.42180618 19.49121094 38.27539062 C18.22660147 35.99424007 16.95783661 33.71546452 15.6875 31.4375 C15.15539917 30.47396606 15.15539917 30.47396606 14.61254883 29.4909668 C13.23465267 27.02716299 12.00779546 25.00779546 10 23 C9.33674819 21.82415626 8.71594745 20.62394889 8.125 19.41015625 C7.77953125 18.70826172 7.4340625 18.00636719 7.078125 17.28320312 C6.72234375 16.55037109 6.3665625 15.81753906 6 15.0625 C5.29351822 13.61498027 4.58524911 12.1683312 3.875 10.72265625 C3.56304687 10.08078369 3.25109375 9.43891113 2.9296875 8.77758789 C1.90695979 6.74569119 1.90695979 6.74569119 0 4 C0 2.68 0 1.36 0 0 Z " fill="#7134AB" transform="translate(281,453)"/>
<path d="M0 0 C0.73221771 -0.00175232 1.46443542 -0.00350464 2.21884155 -0.00531006 C4.63566469 -0.00970555 7.05241442 -0.00679807 9.46923828 -0.00341797 C11.15308649 -0.00409181 12.8369346 -0.00506252 14.52078247 -0.00631714 C18.04967169 -0.00779111 21.5785356 -0.00564972 25.10742188 -0.00097656 C29.62213604 0.00471178 34.13679064 0.00144549 38.65150261 -0.00454903 C42.12940923 -0.0081702 45.60730184 -0.00700874 49.08520889 -0.00442123 C50.74931978 -0.00375582 52.41343196 -0.00456688 54.07754135 -0.00690079 C56.4084991 -0.00945189 58.73936179 -0.00555178 61.0703125 0 C61.75311279 -0.00202423 62.43591309 -0.00404846 63.1394043 -0.00613403 C67.08194498 0.01118413 70.79539509 0.37572484 74.66455078 1.12939453 C74.66455078 1.45939453 74.66455078 1.78939453 74.66455078 2.12939453 C45.62455078 2.45939453 16.58455078 2.78939453 -13.33544922 3.12939453 C-9.58490663 -0.62114806 -5.04407006 -0.01486552 0 0 Z " fill="#070607" transform="translate(592.33544921875,401.87060546875)"/>
<path d="M0 0 C3.09385706 2.85105436 5.07345075 5.58964089 7.03125 9.3046875 C7.8670459 10.87573242 7.8670459 10.87573242 8.71972656 12.47851562 C9.3072168 13.59935547 9.89470703 14.72019531 10.5 15.875 C11.437563 17.6402285 12.37513641 19.40545176 13.31378174 21.17010498 C14.26638135 22.96236052 15.2162323 24.75605546 16.16601562 26.54980469 C18.82530948 31.55261894 21.53237512 36.52869146 24.25 41.5 C24.73307617 42.38494141 25.21615234 43.26988281 25.71386719 44.18164062 C30.43168003 52.81233141 35.20704722 61.41085896 40 70 C39.01 70 38.02 70 37 70 C29.50623891 56.89251139 22.17067446 43.71287944 15.05371094 30.39672852 C12.37669708 25.39301021 9.68330661 20.40341169 6.89453125 15.4609375 C6.42362061 14.62602783 5.95270996 13.79111816 5.4675293 12.9309082 C4.59835914 11.39757128 3.72385612 9.86723997 2.84301758 8.34057617 C0 3.32643902 0 3.32643902 0 0 Z " fill="#7032A7" transform="translate(345,568)"/>
<path d="M0 0 C5.63833813 0.51257619 9.86600879 2.03366419 14.875 4.625 C15.93098389 5.16459351 15.93098389 5.16459351 17.00830078 5.71508789 C22.51691066 8.60154864 27.33999235 11.86754039 32 16 C32.80695313 16.68835938 33.61390625 17.37671875 34.4453125 18.0859375 C40.44762643 23.31731202 45.79670477 28.97976228 51 35 C50.67 35.99 50.34 36.98 50 38 C49.26136719 37.17757812 48.52273438 36.35515625 47.76171875 35.5078125 C33.57866951 19.83379734 19.50553666 9.22373262 0 1 C0 0.67 0 0.34 0 0 Z " fill="#7235AF" transform="translate(268,349)"/>
<path d="M0 0 C3.566764 3.19257225 5.75536831 6.77111945 8 10.9375 C8.78421113 12.3624997 9.56942225 13.78694939 10.35546875 15.2109375 C10.77618652 15.97631836 11.1969043 16.74169922 11.63037109 17.53027344 C14.14605863 22.06658272 16.73302215 26.56226065 19.3125 31.0625 C22.27341271 36.23698878 22.27341271 36.23698878 23.68603516 38.72314453 C24.52929595 40.18435786 25.39206635 41.63458161 26.27880859 43.06982422 C27.25774085 44.67144634 28.13935236 46.33183112 29 48 C28.67 48.99 28.34 49.98 28 51 C22.70830986 42.69098511 17.8599985 34.20379174 13.16357422 25.54614258 C9.83716019 19.44113297 6.35097323 13.46076055 2.64086914 7.58056641 C0 3.31693585 0 3.31693585 0 0 Z " fill="#7135AB" transform="translate(251,401)"/>
<path d="M0 0 C5.875 3.625 5.875 3.625 7 7 C8.32143602 7.68994859 9.65698958 8.35304927 11 9 C12.39197157 10.2437254 13.73540598 11.54289824 15.0390625 12.87890625 C16.15667969 14.01295898 16.15667969 14.01295898 17.296875 15.16992188 C18.06515625 15.95947266 18.8334375 16.74902344 19.625 17.5625 C21.15663169 19.12847891 22.69038195 20.69238939 24.2265625 22.25390625 C24.90283691 22.94814697 25.57911133 23.6423877 26.27587891 24.35766602 C27.91488551 26.07956495 27.91488551 26.07956495 30 27 C30 27.66 30 28.32 30 29 C26.03379349 28.455111 24.26373393 26.60089976 21.5234375 23.78125 C20.27046875 22.50701172 20.27046875 22.50701172 18.9921875 21.20703125 C18.12851562 20.31371094 17.26484375 19.42039062 16.375 18.5 C14.65575694 16.73752154 12.93450371 14.97700098 11.2109375 13.21875 C10.45087402 12.43435547 9.69081055 11.64996094 8.90771484 10.84179688 C7.12717976 8.93879686 7.12717976 8.93879686 5 8 C5 7.34 5 6.68 5 6 C4.360625 5.7525 3.72125 5.505 3.0625 5.25 C1 4 1 4 0.25 1.875 C0.1675 1.25625 0.085 0.6375 0 0 Z " fill="#161516" transform="translate(618,609)"/>
<path d="M0 0 C1.27359375 0.26683594 2.5471875 0.53367187 3.859375 0.80859375 C6.3347736 1.3589992 8.79627195 1.92428286 11.25 2.5625 C11.25 3.2225 11.25 3.8825 11.25 4.5625 C10.39277344 4.42972656 9.53554688 4.29695313 8.65234375 4.16015625 C6.93724609 3.89525391 6.93724609 3.89525391 5.1875 3.625 C4.06214844 3.45097656 2.93679688 3.27695312 1.77734375 3.09765625 C0.61332031 2.92105469 -0.55070312 2.74445313 -1.75 2.5625 C-3.30654297 2.30823242 -3.30654297 2.30823242 -4.89453125 2.04882812 C-9.26813805 1.49714216 -13.56191417 1.33616545 -17.96484375 1.24609375 C-18.82058487 1.22531265 -19.67632599 1.20453156 -20.55799866 1.18312073 C-23.26775776 1.11820046 -25.9776064 1.05901022 -28.6875 1 C-30.53451414 0.95675995 -32.38151952 0.91314399 -34.22851562 0.86914062 C-38.73558741 0.76257881 -43.24274844 0.66115263 -47.75 0.5625 C-47.75 0.2325 -47.75 -0.0975 -47.75 -0.4375 C-43.33924441 -0.5815622 -38.92843772 -0.72391283 -34.51757812 -0.86474609 C-33.02016749 -0.91278963 -31.52277123 -0.96128338 -30.02539062 -1.01025391 C-27.86071427 -1.08096667 -25.69598968 -1.15000632 -23.53125 -1.21875 C-22.23251953 -1.26064453 -20.93378906 -1.30253906 -19.59570312 -1.34570312 C-12.8461897 -1.50681391 -6.65249364 -1.41874609 0 0 Z " fill="#7232B3" transform="translate(255.75,344.4375)"/>
<path d="M0 0 C0 4.06906774 -1.80325829 6.96483635 -3.625 10.5 C-3.98529297 11.20962891 -4.34558594 11.91925781 -4.71679688 12.65039062 C-7.69953183 18.49443947 -10.79707636 24.27356076 -14 30 C-15.06935501 27.28813494 -15.05895603 26.16459325 -14.05957031 23.37451172 C-13.57069336 22.40271973 -13.08181641 21.43092773 -12.578125 20.4296875 C-12.04703125 19.36878906 -11.5159375 18.30789063 -10.96875 17.21484375 C-10.4015625 16.11269531 -9.834375 15.01054687 -9.25 13.875 C-8.69828125 12.76511719 -8.1465625 11.65523438 -7.578125 10.51171875 C-3.40054989 2.26703326 -3.40054989 2.26703326 0 0 Z " fill="#151516" transform="translate(523,354)"/>
<path d="M0 0 C6.56929777 0.79130178 10.61083471 8.05996499 14.5078125 12.85546875 C15.625 14.375 15.625 14.375 17 17 C16.5859375 19.1640625 16.5859375 19.1640625 16 21 C15.27296875 19.96552734 15.27296875 19.96552734 14.53125 18.91015625 C10.45706726 13.19846544 6.23452684 7.83039247 1.46875 2.6796875 C0 1 0 1 0 0 Z " fill="#141415" transform="translate(755,376)"/>
<path d="M0 0 C3.36816491 0.58133562 4.97956724 1.61851986 7.34765625 4.0546875 C7.95287109 4.66957031 8.55808594 5.28445313 9.18164062 5.91796875 C9.80232422 6.56378906 10.42300781 7.20960938 11.0625 7.875 C11.68705078 8.51308594 12.31160156 9.15117188 12.95507812 9.80859375 C14.11944149 10.99905277 15.28069059 12.19257177 16.43774414 13.39013672 C17.94376748 14.94205388 19.46699648 16.47477529 21 18 C20.01 18.33 19.02 18.66 18 19 C14.99599642 16.02484693 11.99747845 13.04422593 9 10.0625 C8.14148438 9.21236328 7.28296875 8.36222656 6.3984375 7.48632812 C5.58632813 6.67744141 4.77421875 5.86855469 3.9375 5.03515625 C3.18339844 4.2862915 2.42929687 3.53742676 1.65234375 2.76586914 C0 1 0 1 0 0 Z " fill="#161616" transform="translate(700,604)"/>
<path d="M0 0 C9.03789977 2.4732535 15.41537908 9.7399928 21 17 C17.40642281 16.43009348 15.82750729 15.13617523 13.375 12.5 C10.96389084 9.88193354 10.96389084 9.88193354 8 8 C8 7.34 8 6.68 8 6 C7.236875 5.71125 6.47375 5.4225 5.6875 5.125 C3 4 3 4 0 2 C0 1.34 0 0.68 0 0 Z " fill="#191819" transform="translate(688,411)"/>
<path d="M0 0 C4.24247013 0.49216591 6.18864351 2.88410863 9.0625 5.875 C9.91972656 6.75929688 10.77695312 7.64359375 11.66015625 8.5546875 C12.43230469 9.36164062 13.20445312 10.16859375 14 11 C14.99676552 12.00322405 15.99506993 13.00495449 17 14 C16.34 14 15.68 14 15 14 C15.33 14.99 15.66 15.98 16 17 C15.01 17 14.02 17 13 17 C12.79375 16.2575 12.5875 15.515 12.375 14.75 C10.59885859 11.19771718 8.2900044 10.1485743 5 8 C3.25 5.4375 3.25 5.4375 2 3 C1.34 2.01 0.68 1.02 0 0 Z " fill="#161616" transform="translate(771,672)"/>
<path d="M0 0 C3.98393204 3.64144854 6.17343868 8.32133367 8.75 13 C9.26949219 13.91523437 9.78898437 14.83046875 10.32421875 15.7734375 C10.81019531 16.65257812 11.29617188 17.53171875 11.796875 18.4375 C12.24385742 19.24058594 12.69083984 20.04367187 13.15136719 20.87109375 C14 23 14 23 13 26 C11.39250173 23.29363125 9.78961541 20.5845582 8.1875 17.875 C7.73568359 17.11445312 7.28386719 16.35390625 6.81835938 15.5703125 C0 4.0238937 0 4.0238937 0 0 Z " fill="#7134A8" transform="translate(386,642)"/>
<path d="M0 0 C0.33 0.99 0.66 1.98 1 3 C-0.33481289 5.43042259 -1.69867994 7.65295724 -3.25 9.9375 C-3.65863281 10.55818359 -4.06726563 11.17886719 -4.48828125 11.81835938 C-6.56514429 14.95368799 -8.70099928 18.02174906 -11 21 C-11.99 20.67 -12.98 20.34 -14 20 C-13.49210938 19.31035156 -12.98421875 18.62070312 -12.4609375 17.91015625 C-8.15597243 12.03315337 -3.97829156 6.10306092 0 0 Z " fill="#141414" transform="translate(773,511)"/>
<path d="M0 0 C1 3 1 3 0.28735352 4.90112305 C-0.28607788 5.94586792 -0.28607788 5.94586792 -0.87109375 7.01171875 C-1.48500977 8.14770508 -1.48500977 8.14770508 -2.11132812 9.30664062 C-2.54896484 10.09232422 -2.98660156 10.87800781 -3.4375 11.6875 C-4.0881543 12.88342773 -4.0881543 12.88342773 -4.75195312 14.10351562 C-5.82574763 16.07410554 -6.90864182 18.03909927 -8 20 C-8.66 20 -9.32 20 -10 20 C-9.39168883 15.55849515 -7.70846664 12.22520841 -5.5625 8.3125 C-4.94503906 7.17425781 -4.32757812 6.03601563 -3.69140625 4.86328125 C-2 2 -2 2 0 0 Z " fill="#141414" transform="translate(566,412)"/>
<path d="M0 0 C4.07376031 1.61010527 6.76507069 4.53822271 9.75 7.625 C10.25660156 8.140625 10.76320313 8.65625 11.28515625 9.1875 C12.52803902 10.45383339 13.76465276 11.7263144 15 13 C14.67 13.99 14.34 14.98 14 16 C11.65861457 13.71643754 9.32833018 11.42186626 7 9.125 C5.99839844 8.14853516 5.99839844 8.14853516 4.9765625 7.15234375 C4.34492187 6.52714844 3.71328125 5.90195312 3.0625 5.2578125 C2.47597656 4.6817627 1.88945313 4.10571289 1.28515625 3.51220703 C0 2 0 2 0 0 Z " fill="#121111" transform="translate(753,654)"/>
<path d="M0 0 C4.77257975 0.88303238 7.71755384 3.54392318 11 7 C12.4375 9.875 12.4375 9.875 13 12 C11.0625 11.1875 11.0625 11.1875 9 10 C8.67 9.01 8.34 8.02 8 7 C7.401875 6.71125 6.80375 6.4225 6.1875 6.125 C3.30899659 4.64462682 1.89900001 2.57721429 0 0 Z " fill="#100F0F" transform="translate(685,590)"/>
<path d="M0 0 C0.66 0 1.32 0 2 0 C1.39644592 3.85025879 0.23227397 6.86101159 -1.5625 10.3125 C-2.01753906 11.19550781 -2.47257812 12.07851563 -2.94140625 12.98828125 C-3.29074219 13.65214844 -3.64007813 14.31601562 -4 15 C-4.66 14.67 -5.32 14.34 -6 14 C-4.50829734 9.0276578 -2.39542583 4.58154261 0 0 Z " fill="#151518" transform="translate(464,466)"/>
<path d="M0 0 C0.71484375 1.546875 0.71484375 1.546875 1 4 C-0.05391226 6.53857885 -1.13965574 8.84495527 -2.4375 11.25 C-2.77587891 11.8996875 -3.11425781 12.549375 -3.46289062 13.21875 C-4.29786887 14.81814494 -5.14753114 16.40985859 -6 18 C-6.66 18 -7.32 18 -8 18 C-6.52232949 11.35048271 -3.37863948 5.8754328 0 0 Z " fill="#111111" transform="translate(545,451)"/>
<path d="M0 0 C4.13621084 3.3810038 7.81316569 6.66590534 11 11 C6.67750434 11 5.11604454 8.85084926 2 6 C0 3 0 3 0 0 Z " fill="#161515" transform="translate(566,558)"/>
<path d="M0 0 C3.96 0 7.92 0 12 0 C12 0.66 12 1.32 12 2 C13.98 2 15.96 2 18 2 C18 2.33 18 2.66 18 3 C12.49273782 3.81172799 7.48927729 4.34431281 2 3 C1.34 2.01 0.68 1.02 0 0 Z " fill="#242324" transform="translate(683,344)"/>
<path d="M0 0 C1.14897419 4.59589675 0.7140729 5.26171852 -1.4375 9.25 C-1.91058594 10.14203125 -2.38367188 11.0340625 -2.87109375 11.953125 C-3.24363281 12.62859375 -3.61617187 13.3040625 -4 14 C-4.99 13.67 -5.98 13.34 -7 13 C-3.535 6.565 -3.535 6.565 0 0 Z " fill="#131314" transform="translate(519,502)"/>
<path d="M0 0 C0.66 0 1.32 0 2 0 C2 0.66 2 1.32 2 2 C2.86625 2.37125 2.86625 2.37125 3.75 2.75 C6.3002997 4.16683317 8.01785701 5.87627537 10 8 C9.67 8.99 9.34 9.98 9 11 C7.49403892 9.54782324 5.99537896 8.08807139 4.5 6.625 C3.6646875 5.81289063 2.829375 5.00078125 1.96875 4.1640625 C0 2 0 2 0 0 Z " fill="#131212" transform="translate(598,590)"/>
<path d="M0 0 C3 1 3 1 4.203125 2.70703125 C4.54859375 3.40183594 4.8940625 4.09664062 5.25 4.8125 C5.60578125 5.49957031 5.9615625 6.18664062 6.328125 6.89453125 C7.11193544 9.35077442 6.84119973 10.60042386 6 13 C4.99491199 11.21118264 3.99607264 9.41885304 3 7.625 C2.1646875 6.12839844 2.1646875 6.12839844 1.3125 4.6015625 C0 2 0 2 0 0 Z " fill="#723AAE" transform="translate(352,582)"/>
<path d="M0 0 C1 3 1 3 0.00390625 5.48046875 C-0.47175781 6.37378906 -0.94742187 7.26710938 -1.4375 8.1875 C-1.91058594 9.08855469 -2.38367188 9.98960937 -2.87109375 10.91796875 C-3.24363281 11.60503906 -3.61617188 12.29210937 -4 13 C-4.66 13 -5.32 13 -6 13 C-5.34215037 9.70319035 -4.10579427 7.15882078 -2.4375 4.25 C-1.98246094 3.45078125 -1.52742188 2.6515625 -1.05859375 1.828125 C-0.53458984 0.92320312 -0.53458984 0.92320312 0 0 Z " fill="#141314" transform="translate(496,547)"/>
<path d="M0 0 C3.77777778 1.51111111 3.77777778 1.51111111 4.9375 4.0625 C5.4634375 5.0215625 5.4634375 5.0215625 6 6 C8.55519921 6.81171228 8.55519921 6.81171228 11 7 C10.67 7.99 10.34 8.98 10 10 C5.48872628 7.67991637 3.02444984 4.97499121 0 1 C0 0.67 0 0.34 0 0 Z " fill="#69349C" transform="translate(408,548)"/>
<path d="M0 0 C2.98093122 2.5550839 4.52359755 5.38281401 6 9 C5.578125 11.19140625 5.578125 11.19140625 5 13 C4.15615325 11.58957044 3.32530504 10.17135868 2.5 8.75 C2.0359375 7.96109375 1.571875 7.1721875 1.09375 6.359375 C0 4 0 4 0 0 Z " fill="#121212" transform="translate(711,432)"/>
<path d="M0 0 C5.03985731 0.44469329 7.37634988 2.71343362 11 6 C10.67 6.99 10.34 7.98 10 9 C8.33043913 7.69118353 6.66441696 6.37785174 5 5.0625 C4.071875 4.33160156 3.14375 3.60070312 2.1875 2.84765625 C1.465625 2.23792969 0.74375 1.62820313 0 1 C0 0.67 0 0.34 0 0 Z " fill="#161616" transform="translate(743,366)"/>
<path d="M0 0 C0.33 0 0.66 0 1 0 C1.268125 0.928125 1.53625 1.85625 1.8125 2.8125 C2.91148371 5.76240366 3.62418561 7.05615186 6 9 C5.67 9.99 5.34 10.98 5 12 C-0.85553772 6.92868608 -0.85553772 6.92868608 -1.4375 3.1875 C-1 1 -1 1 0 0 Z " fill="#7741AE" transform="translate(207,343)"/>
<path d="M0 0 C3.59905908 0.55550695 4.99909799 1.74887248 7.25 4.5625 C8.03117188 5.52349609 8.03117188 5.52349609 8.828125 6.50390625 C9.21484375 6.99761719 9.6015625 7.49132812 10 8 C6.40094092 7.44449305 5.00090201 6.25112752 2.75 3.4375 C2.22921875 2.79683594 1.7084375 2.15617188 1.171875 1.49609375 C0.78515625 1.00238281 0.3984375 0.50867188 0 0 Z " fill="#161616" transform="translate(677,582)"/>
<path d="M0 0 C0.99 0.33 1.98 0.66 3 1 C2.67 6.61 2.34 12.22 2 18 C1.67 18 1.34 18 1 18 C0.67 12.06 0.34 6.12 0 0 Z " fill="#333334" transform="translate(717,450)"/>
<path d="M0 0 C0.33 0 0.66 0 1 0 C1 3.96 1 7.92 1 12 C-2 8 -2 8 -1.75 5.4375 C-1.19004371 3.61764204 -0.60211577 1.80634732 0 0 Z " fill="#121213" transform="translate(562,539)"/>
<path d="M0 0 C4.43090471 1.20842856 6.98112756 2.51668565 10 6 C9.01 6.495 9.01 6.495 8 7 C6.0546875 6.07421875 6.0546875 6.07421875 3.875 4.6875 C2.78832031 4.01267578 2.78832031 4.01267578 1.6796875 3.32421875 C1.12539063 2.88722656 0.57109375 2.45023437 0 2 C0 1.34 0 0.68 0 0 Z " fill="#131313" transform="translate(688,411)"/>
<path d="M0 0 C1.32 0 2.64 0 4 0 C4.33 1.32 4.66 2.64 5 4 C-1.93 3.505 -1.93 3.505 -9 3 C-9 2.67 -9 2.34 -9 2 C-4.545 1.505 -4.545 1.505 0 1 C0 0.67 0 0.34 0 0 Z " fill="#363637" transform="translate(665,402)"/>
<path d="M0 0 C2.64 0.33 5.28 0.66 8 1 C8.33 1.99 8.66 2.98 9 4 C7.68528432 3.71848913 6.37324233 3.42446661 5.0625 3.125 C3.96615234 2.88136719 3.96615234 2.88136719 2.84765625 2.6328125 C1 2 1 2 0 0 Z " fill="#111010" transform="translate(710,350)"/>
<path d="M0 0 C0.99 0.33 1.98 0.66 3 1 C3.6875 3.0625 3.6875 3.0625 4 5 C5.65 5 7.3 5 9 5 C8.34 5.66 7.68 6.32 7 7 C4.625 6.3125 4.625 6.3125 2 5 C0.6875 2.375 0.6875 2.375 0 0 Z " fill="#7A49B2" transform="translate(408,683)"/>
<path d="M0 0 C1.17219543 0.78345715 2.33763668 1.57702836 3.5 2.375 C4.47453125 3.03628906 4.47453125 3.03628906 5.46875 3.7109375 C5.9740625 4.13632812 6.479375 4.56171875 7 5 C7 5.66 7 6.32 7 7 C3.76509224 6.44225728 2.02144994 5.62788492 0 3 C0 2.01 0 1.02 0 0 Z " fill="#171616" transform="translate(609,600)"/>
<path d="M0 0 C0.33 0.66 0.66 1.32 1 2 C0.22265625 3.9453125 0.22265625 3.9453125 -0.9375 6.125 C-1.31777344 6.84945312 -1.69804687 7.57390625 -2.08984375 8.3203125 C-2.39019531 8.87460937 -2.69054687 9.42890625 -3 10 C-3.62109375 8.203125 -3.62109375 8.203125 -4 6 C-2.0625 2.75 -2.0625 2.75 0 0 Z " fill="#0D0C0F" transform="translate(427,540)"/>
<path d="M0 0 C0.66 0 1.32 0 2 0 C3.20272819 2.40545638 3.10071472 3.94996953 3.0625 6.625 C3.05347656 7.44226563 3.04445313 8.25953125 3.03515625 9.1015625 C3.02355469 9.72804688 3.01195312 10.35453125 3 11 C1.0210244 7.36383344 0.4748935 4.11574371 0 0 Z " fill="#0D0D0D" transform="translate(783,422)"/>
<path d="M0 0 C3.36720387 1.39332574 4.9859524 2.9789286 7 6 C4 6 4 6 1.8125 4.125 C0 2 0 2 0 0 Z " fill="#0E0D0E" transform="translate(625,616)"/>
<path d="M0 0 C0.93065133 2.60582371 1.14917407 3.64198224 0.0625 6.25 C-0.4634375 7.11625 -0.4634375 7.11625 -1 8 C-1.99 7.67 -2.98 7.34 -4 7 C-2.68 4.69 -1.36 2.38 0 0 Z " fill="#121113" transform="translate(484,569)"/>
<path d="M0 0 C0 0.66 0 1.32 0 2 C-2.95664519 3.4783226 -5.74229737 3.06032783 -9 3 C-6.01800145 0.01800145 -4.21244839 0 0 0 Z " fill="#151414" transform="translate(706,568)"/>
<path d="M0 0 C0.33 0.66 0.66 1.32 1 2 C0.22265625 3.9453125 0.22265625 3.9453125 -0.9375 6.125 C-1.31777344 6.84945313 -1.69804687 7.57390625 -2.08984375 8.3203125 C-2.39019531 8.87460937 -2.69054687 9.42890625 -3 10 C-3.62109375 8.203125 -3.62109375 8.203125 -4 6 C-2.0625 2.75 -2.0625 2.75 0 0 Z " fill="#0D0C0F" transform="translate(481,435)"/>
<path d="M0 0 C2.97 0.99 5.94 1.98 9 3 C9 3.33 9 3.66 9 4 C3.375 4.25 3.375 4.25 0 2 C0 1.34 0 0.68 0 0 Z " fill="#131312" transform="translate(678,406)"/>
<path d="M0 0 C0.93423645 3.01031744 1.04449911 3.86650268 0 7 C-0.99 7 -1.98 7 -3 7 C-1.125 1.125 -1.125 1.125 0 0 Z " fill="#272233" transform="translate(422,548)"/>
<path d="M0 0 C1.32 0.33 2.64 0.66 4 1 C1.69 2.65 -0.62 4.3 -3 6 C-2 2 -2 2 0 0 Z " fill="#0E0E0F" transform="translate(570,525)"/>
<path d="M0 0 C0.93065133 2.60582371 1.14917407 3.64198224 0.0625 6.25 C-0.4634375 7.11625 -0.4634375 7.11625 -1 8 C-1.66 8 -2.32 8 -3 8 C-2.45276317 4.62537285 -1.9451 2.91765 0 0 Z " fill="#111111" transform="translate(535,471)"/>
<path d="M0 0 C2.02045442 0.60183749 4.02111039 1.27306096 6 2 C6.33 2.66 6.66 3.32 7 4 C6.01 4.33 5.02 4.66 4 5 C1.8125 3.6875 1.8125 3.6875 0 2 C0 1.34 0 0.68 0 0 Z " fill="#242324" transform="translate(728,356)"/>
<path d="M0 0 C0.99 1.485 0.99 1.485 2 3 C1.34 3 0.68 3 0 3 C0 2.01 0 1.02 0 0 Z " fill="#7E57BF" transform="translate(400,673)"/>
<path d="M0 0 C0 3 0 3 0 3 Z " fill="#3F3E3F" transform="translate(697,420)"/>
<path d="M0 0 C1.485 0.99 1.485 0.99 3 2 C2.01 2 1.02 2 0 2 C0 1.34 0 0.68 0 0 Z " fill="#454343" transform="translate(593,405)"/>
<path d="M0 0 C0.33 0.66 0.66 1.32 1 2 C0.34 1.67 -0.32 1.34 -1 1 C-0.67 0.67 -0.34 0.34 0 0 Z " fill="#444343" transform="translate(676,669)"/>
<path d="M0 0 C0.66 0.66 1.32 1.32 2 2 C1.34 2 0.68 2 0 2 C0 1.34 0 0.68 0 0 Z " fill="#7E53C0" transform="translate(380,637)"/>
<path d="" fill="#3C3D3D" transform="translate(0,0)"/>
<path d="" fill="#464343" transform="translate(0,0)"/>
<path d="M0 0 C2 1 2 1 2 1 Z " fill="#7F54C2" transform="translate(368,621)"/>
<path d="" fill="#7F54C5" transform="translate(0,0)"/>
<path d="" fill="#664492" transform="translate(0,0)"/>
<path d="M0 0 C2 1 2 1 2 1 Z " fill="#734AB8" transform="translate(397,521)"/>
<path d="" fill="#7850C0" transform="translate(0,0)"/>
<path d="" fill="#774EBF" transform="translate(0,0)"/>
<path d="M0 0 C2 1 2 1 2 1 Z " fill="#7E50C6" transform="translate(288,474)"/>
<path d="M0 0 C2 1 2 1 2 1 Z " fill="#794DC1" transform="translate(370,473)"/>
<path d="" fill="#3E3E3E" transform="translate(0,0)"/>
<path d="M0 0 C2 1 2 1 2 1 Z " fill="#7A4DC1" transform="translate(358,450)"/>
<path d="" fill="#3F3C3E" transform="translate(0,0)"/>
<path d="M0 0 C2 1 2 1 2 1 Z " fill="#423F41" transform="translate(580,407)"/>
<path d="M0 0 C2 1 2 1 2 1 Z " fill="#474645" transform="translate(600,405)"/>
<path d="" fill="#47474B" transform="translate(0,0)"/>
<path d="M0 0 C2 1 2 1 2 1 Z " fill="#4A484A" transform="translate(739,360)"/>
<path d="M0 0 C2 1 2 1 2 1 Z " fill="#484746" transform="translate(710,347)"/>
<path d="M0 0 C2 1 2 1 2 1 Z " fill="#474747" transform="translate(702,345)"/>
<path d="M0 0 C2 1 2 1 2 1 Z " fill="#494846" transform="translate(699,344)"/>
<path d="M0 0 C2 1 2 1 2 1 Z " fill="#4F4E52" transform="translate(529,344)"/>
<path d="" fill="#6B6B6B" transform="translate(0,0)"/>
<path d="" fill="#525051" transform="translate(0,0)"/>
<path d="" fill="#4A4949" transform="translate(0,0)"/>
<path d="" fill="#535253" transform="translate(0,0)"/>
<path d="" fill="#444343" transform="translate(0,0)"/>
<path d="" fill="#8059C0" transform="translate(0,0)"/>
<path d="" fill="#464644" transform="translate(0,0)"/>
<path d="" fill="#494547" transform="translate(0,0)"/>
<path d="" fill="#8058C1" transform="translate(0,0)"/>
<path d="" fill="#444444" transform="translate(0,0)"/>
<path d="" fill="#464244" transform="translate(0,0)"/>
<path d="" fill="#4A4B49" transform="translate(0,0)"/>
<path d="" fill="#444342" transform="translate(0,0)"/>
<path d="" fill="#454445" transform="translate(0,0)"/>
<path d="" fill="#424141" transform="translate(0,0)"/>
<path d="" fill="#8059BD" transform="translate(0,0)"/>
<path d="" fill="#444342" transform="translate(0,0)"/>
<path d="" fill="#434242" transform="translate(0,0)"/>
<path d="" fill="#40413F" transform="translate(0,0)"/>
<path d="" fill="#8056C1" transform="translate(0,0)"/>
<path d="" fill="#423F41" transform="translate(0,0)"/>
<path d="" fill="#454343" transform="translate(0,0)"/>
<path d="" fill="#8156BE" transform="translate(0,0)"/>
<path d="" fill="#8055C0" transform="translate(0,0)"/>
<path d="" fill="#424040" transform="translate(0,0)"/>
<path d="" fill="#7B55BA" transform="translate(0,0)"/>
<path d="" fill="#444241" transform="translate(0,0)"/>
<path d="" fill="#7A53BA" transform="translate(0,0)"/>
<path d="" fill="#433F40" transform="translate(0,0)"/>
<path d="" fill="#444544" transform="translate(0,0)"/>
<path d="" fill="#8154C1" transform="translate(0,0)"/>
<path d="" fill="#7B52BB" transform="translate(0,0)"/>
<path d="" fill="#444242" transform="translate(0,0)"/>
<path d="" fill="#784EB6" transform="translate(0,0)"/>
<path d="" fill="#7E53C2" transform="translate(0,0)"/>
<path d="" fill="#454341" transform="translate(0,0)"/>
<path d="" fill="#7F53C2" transform="translate(0,0)"/>
<path d="" fill="#7D53C1" transform="translate(0,0)"/>
<path d="" fill="#443E3E" transform="translate(0,0)"/>
<path d="" fill="#433F44" transform="translate(0,0)"/>
<path d="" fill="#433F41" transform="translate(0,0)"/>
<path d="" fill="#434141" transform="translate(0,0)"/>
<path d="" fill="#754FB0" transform="translate(0,0)"/>
<path d="" fill="#7F53C3" transform="translate(0,0)"/>
<path d="" fill="#454140" transform="translate(0,0)"/>
<path d="" fill="#424041" transform="translate(0,0)"/>
<path d="" fill="#454242" transform="translate(0,0)"/>
<path d="" fill="#433E3F" transform="translate(0,0)"/>
<path d="" fill="#3D3D3D" transform="translate(0,0)"/>
<path d="" fill="#574C64" transform="translate(0,0)"/>
<path d="" fill="#3F3F3F" transform="translate(0,0)"/>
<path d="" fill="#443F41" transform="translate(0,0)"/>
<path d="" fill="#7D52C1" transform="translate(0,0)"/>
<path d="" fill="#4B454F" transform="translate(0,0)"/>
<path d="" fill="#7E52C1" transform="translate(0,0)"/>
<path d="" fill="#444148" transform="translate(0,0)"/>
<path d="" fill="#484445" transform="translate(0,0)"/>
<path d="" fill="#7E53C3" transform="translate(0,0)"/>
<path d="" fill="#7E50C3" transform="translate(0,0)"/>
<path d="" fill="#464246" transform="translate(0,0)"/>
<path d="" fill="#464546" transform="translate(0,0)"/>
<path d="" fill="#474446" transform="translate(0,0)"/>
<path d="" fill="#7E52C2" transform="translate(0,0)"/>
<path d="" fill="#804FC2" transform="translate(0,0)"/>
<path d="" fill="#7C51C3" transform="translate(0,0)"/>
<path d="" fill="#664A91" transform="translate(0,0)"/>
<path d="" fill="#7C51C0" transform="translate(0,0)"/>
<path d="" fill="#434043" transform="translate(0,0)"/>
<path d="" fill="#7C4EC2" transform="translate(0,0)"/>
<path d="" fill="#5B4381" transform="translate(0,0)"/>
<path d="" fill="#464847" transform="translate(0,0)"/>
<path d="" fill="#423E43" transform="translate(0,0)"/>
<path d="" fill="#454548" transform="translate(0,0)"/>
<path d="" fill="#7B4DC2" transform="translate(0,0)"/>
<path d="" fill="#7E4FC3" transform="translate(0,0)"/>
<path d="" fill="#5C487D" transform="translate(0,0)"/>
<path d="" fill="#464246" transform="translate(0,0)"/>
<path d="" fill="#4A4949" transform="translate(0,0)"/>
<path d="" fill="#49474A" transform="translate(0,0)"/>
<path d="" fill="#4C4C4D" transform="translate(0,0)"/>
<path d="" fill="#444345" transform="translate(0,0)"/>
<path d="" fill="#434445" transform="translate(0,0)"/>
<path d="" fill="#424343" transform="translate(0,0)"/>
<path d="" fill="#414241" transform="translate(0,0)"/>
<path d="" fill="#4F4862" transform="translate(0,0)"/>
<path d="" fill="#403F40" transform="translate(0,0)"/>
<path d="" fill="#3E3C3E" transform="translate(0,0)"/>
<path d="" fill="#804FC7" transform="translate(0,0)"/>
<path d="" fill="#7C4FC3" transform="translate(0,0)"/>
<path d="" fill="#4E475F" transform="translate(0,0)"/>
<path d="" fill="#3F3C3E" transform="translate(0,0)"/>
<path d="" fill="#3F3F3E" transform="translate(0,0)"/>
<path d="" fill="#4A4A4D" transform="translate(0,0)"/>
<path d="" fill="#7F53C4" transform="translate(0,0)"/>
<path d="" fill="#7F51C6" transform="translate(0,0)"/>
<path d="" fill="#474849" transform="translate(0,0)"/>
<path d="" fill="#7F53C5" transform="translate(0,0)"/>
<path d="" fill="#414043" transform="translate(0,0)"/>
<path d="" fill="#3F3D40" transform="translate(0,0)"/>
<path d="" fill="#4C4758" transform="translate(0,0)"/>
<path d="" fill="#403D40" transform="translate(0,0)"/>
<path d="" fill="#8152C3" transform="translate(0,0)"/>
<path d="" fill="#774FBF" transform="translate(0,0)"/>
<path d="" fill="#414042" transform="translate(0,0)"/>
<path d="" fill="#7F57C4" transform="translate(0,0)"/>
<path d="" fill="#794CC0" transform="translate(0,0)"/>
<path d="" fill="#403F40" transform="translate(0,0)"/>
<path d="" fill="#8251C6" transform="translate(0,0)"/>
<path d="" fill="#48444D" transform="translate(0,0)"/>
<path d="" fill="#413F42" transform="translate(0,0)"/>
<path d="" fill="#474646" transform="translate(0,0)"/>
<path d="" fill="#7F53C3" transform="translate(0,0)"/>
<path d="" fill="#8156C5" transform="translate(0,0)"/>
<path d="" fill="#7E56C3" transform="translate(0,0)"/>
<path d="" fill="#403E40" transform="translate(0,0)"/>
<path d="" fill="#403F3E" transform="translate(0,0)"/>
<path d="" fill="#4D4A51" transform="translate(0,0)"/>
<path d="" fill="#494648" transform="translate(0,0)"/>
<path d="" fill="#3E3D3E" transform="translate(0,0)"/>
<path d="" fill="#4C4A52" transform="translate(0,0)"/>
<path d="" fill="#484848" transform="translate(0,0)"/>
<path d="" fill="#4B474E" transform="translate(0,0)"/>
<path d="" fill="#3F3F3F" transform="translate(0,0)"/>
<path d="" fill="#7E53C6" transform="translate(0,0)"/>
<path d="" fill="#403E3D" transform="translate(0,0)"/>
<path d="" fill="#423F42" transform="translate(0,0)"/>
<path d="" fill="#7A52C4" transform="translate(0,0)"/>
<path d="" fill="#403F40" transform="translate(0,0)"/>
<path d="" fill="#7F54C5" transform="translate(0,0)"/>
<path d="" fill="#403C41" transform="translate(0,0)"/>
<path d="" fill="#404040" transform="translate(0,0)"/>
<path d="" fill="#424041" transform="translate(0,0)"/>
<path d="" fill="#42423F" transform="translate(0,0)"/>
<path d="" fill="#444242" transform="translate(0,0)"/>
<path d="" fill="#434342" transform="translate(0,0)"/>
<path d="" fill="#454544" transform="translate(0,0)"/>
<path d="" fill="#474444" transform="translate(0,0)"/>
<path d="" fill="#464645" transform="translate(0,0)"/>
<path d="" fill="#454646" transform="translate(0,0)"/>
<path d="" fill="#444344" transform="translate(0,0)"/>
<path d="" fill="#454444" transform="translate(0,0)"/>
<path d="" fill="#454544" transform="translate(0,0)"/>
<path d="" fill="#464545" transform="translate(0,0)"/>
<path d="" fill="#444442" transform="translate(0,0)"/>
<path d="" fill="#424241" transform="translate(0,0)"/>
<path d="" fill="#444041" transform="translate(0,0)"/>
<path d="" fill="#8054C4" transform="translate(0,0)"/>
<path d="" fill="#454343" transform="translate(0,0)"/>
<path d="" fill="#4A4948" transform="translate(0,0)"/>
<path d="" fill="#474646" transform="translate(0,0)"/>
<path d="" fill="#7D52C1" transform="translate(0,0)"/>
<path d="" fill="#494547" transform="translate(0,0)"/>
<path d="" fill="#8156C8" transform="translate(0,0)"/>
<path d="" fill="#7D54C5" transform="translate(0,0)"/>
<path d="" fill="#8057C8" transform="translate(0,0)"/>
<path d="" fill="#49484C" transform="translate(0,0)"/>
<path d="" fill="#474749" transform="translate(0,0)"/>
<path d="" fill="#464446" transform="translate(0,0)"/>
<path d="" fill="#48464D" transform="translate(0,0)"/>
<path d="" fill="#4B494E" transform="translate(0,0)"/>
<path d="" fill="#7E54C0" transform="translate(0,0)"/>
<path d="" fill="#7E56C1" transform="translate(0,0)"/>
<path d="" fill="#464345" transform="translate(0,0)"/>
<path d="" fill="#49494C" transform="translate(0,0)"/>
<path d="" fill="#4C4A4A" transform="translate(0,0)"/>
<path d="" fill="#8259C2" transform="translate(0,0)"/>
<path d="" fill="#7E57C2" transform="translate(0,0)"/>
<path d="" fill="#825DC3" transform="translate(0,0)"/>
<path d="" fill="#845DC0" transform="translate(0,0)"/>
<path d="" fill="#454447" transform="translate(0,0)"/>
<path d="" fill="#494748" transform="translate(0,0)"/>
<path d="" fill="#8663BB" transform="translate(0,0)"/>
<path d="" fill="#4B4B4E" transform="translate(0,0)"/>
<path d="" fill="#504D4F" transform="translate(0,0)"/>
<path d="" fill="#494846" transform="translate(0,0)"/>
<path d="" fill="#7F59C2" transform="translate(0,0)"/>
<path d="" fill="#525251" transform="translate(0,0)"/>
<path d="" fill="#4F4F4F" transform="translate(0,0)"/>
</svg>
